<?xml version="1.0" standalone="no"?>
<!DOCTYPE svg PUBLIC "-//W3C//DTD SVG 20010904//EN"
 "http://www.w3.org/TR/2001/REC-SVG-20010904/DTD/svg10.dtd">
<svg version="1.0" xmlns="http://www.w3.org/2000/svg"
 width="135.000000pt" height="135.000000pt" viewBox="0 0 135.000000 135.000000"
 preserveAspectRatio="xMidYMid meet">
<metadata>
Created by potrace 1.14, written by Peter Selinger 2001-2017
</metadata>
<g transform="translate(0.000000,135.000000) scale(0.100000,-0.100000)"
fill="#000000" stroke="none">
<path d="M750 996 c-220 -220 -276 -280 -278 -304 -6 -62 69 -86 110 -34 13
15 107 113 210 217 l188 190 0 -318 0 -318 -29 22 c-21 15 -37 20 -55 15 -33
-8 -60 -49 -52 -78 3 -13 43 -61 90 -107 70 -70 90 -84 116 -84 67 0 65 -19
68 521 3 690 27 672 -368 278z"/>
<path d="M273 1130 c-12 -5 -26 -18 -32 -29 -7 -13 -11 -180 -10 -508 0 -296
4 -479 9 -466 5 12 36 49 70 82 l60 59 0 311 0 310 28 -16 c53 -31 121 13 107
69 -7 29 -161 184 -190 191 -11 3 -30 2 -42 -3z"/>
<path d="M776 679 c-31 -25 -33 -47 -5 -83 25 -32 61 -34 89 -4 25 28 26 62 0
88 -26 26 -51 25 -84 -1z"/>
</g>
</svg>
